<?xml version="1.0" encoding="UTF-8"?>
<svg width="60" height="60" viewBox="0 0 60 60" fill="none" xmlns="http://www.w3.org/2000/svg">
<rect width="60" height="60" rx="12" fill="#4F46E5"/>
<path d="M30 15C23.925 15 19 19.925 19 26C19 32.075 23.925 37 30 37C36.075 37 41 32.075 41 26C41 19.925 36.075 15 30 15ZM30 33C26.14 33 23 29.86 23 26C23 22.14 26.14 19 30 19C33.86 19 37 22.14 37 26C37 29.86 33.86 33 30 33Z" fill="white"/>
<path d="M30 21C27.24 21 25 23.24 25 26C25 28.76 27.24 31 30 31C32.76 31 35 28.76 35 26C35 23.24 32.76 21 30 21Z" fill="white"/>
<rect x="15" y="40" width="30" height="3" rx="1.5" fill="white"/>
<rect x="18" y="45" width="24" height="2" rx="1" fill="white" opacity="0.7"/>
</svg>